<svg width="117" height="53" viewBox="0 0 117 53" fill="none" xmlns="http://www.w3.org/2000/svg">
<path d="M16.6436 28.8696L25.1338 1.5459H31.8047L17.1489 43.6265C14.8804 49.6909 11.2754 52.7231 6.33398 52.7231L5.15479 52.6221L2.83008 52.1841V47.1304L4.51465 47.2651C6.62598 47.2651 8.26562 46.8384 9.43359 45.9849C10.624 45.1313 11.6011 43.5703 12.3647 41.3018L13.7461 37.5957L0.741211 1.5459H7.54688L16.6436 28.8696ZM52.0532 38.6738C47.1118 38.6738 43.0913 37.0566 39.9917 33.8223C36.8921 30.5654 35.3423 26.2192 35.3423 20.7837V19.6382C35.3423 16.022 36.0273 12.7988 37.3975 9.96875C38.79 7.11621 40.7217 4.89258 43.1924 3.29785C45.6855 1.68066 48.3809 0.87207 51.2783 0.87207C56.0176 0.87207 59.7012 2.43311 62.3291 5.55518C64.957 8.67725 66.271 13.147 66.271 18.9644V21.5586H41.5752C41.665 25.1523 42.7095 28.061 44.7085 30.2847C46.73 32.4858 49.2905 33.5864 52.3901 33.5864C54.5913 33.5864 56.4556 33.1372 57.9829 32.2388C59.5103 31.3403 60.8467 30.1499 61.9922 28.6675L65.7993 31.6323C62.7446 36.3267 58.1626 38.6738 52.0532 38.6738ZM51.2783 5.99316C48.7627 5.99316 46.6514 6.91406 44.9443 8.75586C43.2373 10.5752 42.1816 13.1357 41.7773 16.4375H60.0381V15.9658C59.8584 12.7988 59.0049 10.3506 57.4775 8.62109C55.9502 6.86914 53.8838 5.99316 51.2783 5.99316ZM94.7402 28.3306C94.7402 26.646 94.1001 25.3433 92.8198 24.4224C91.562 23.479 89.3496 22.6704 86.1826 21.9966C83.0381 21.3228 80.5337 20.5142 78.6694 19.5708C76.8276 18.6274 75.4575 17.5044 74.5591 16.2017C73.6831 14.8989 73.2451 13.3491 73.2451 11.5522C73.2451 8.56494 74.5029 6.03809 77.0186 3.97168C79.5566 1.90527 82.791 0.87207 86.7217 0.87207C90.8545 0.87207 94.2012 1.93896 96.7617 4.07275C99.3447 6.20654 100.636 8.93555 100.636 12.2598H94.3696C94.3696 10.5527 93.6396 9.08154 92.1797 7.84619C90.7422 6.61084 88.9229 5.99316 86.7217 5.99316C84.4531 5.99316 82.6787 6.4873 81.3984 7.47559C80.1182 8.46387 79.478 9.75537 79.478 11.3501C79.478 12.855 80.0732 13.9893 81.2637 14.7529C82.4541 15.5166 84.5991 16.2466 87.6987 16.9429C90.8208 17.6392 93.3477 18.4702 95.2793 19.436C97.2109 20.4019 98.6372 21.5698 99.5581 22.9399C100.501 24.2876 100.973 25.9385 100.973 27.8926C100.973 31.1494 99.6704 33.7661 97.0649 35.7427C94.4595 37.6968 91.0791 38.6738 86.9238 38.6738C84.0039 38.6738 81.4209 38.1572 79.1748 37.124C76.9287 36.0908 75.1655 34.6533 73.8853 32.8115C72.6274 30.9473 71.9985 28.937 71.9985 26.7808H78.2314C78.3438 28.8696 79.1748 30.5317 80.7246 31.7671C82.2969 32.98 84.3633 33.5864 86.9238 33.5864C89.2822 33.5864 91.1689 33.1147 92.584 32.1714C94.0215 31.2056 94.7402 29.9253 94.7402 28.3306ZM109.228 34.7319C109.228 33.6538 109.542 32.7554 110.171 32.0366C110.822 31.3179 111.788 30.9585 113.068 30.9585C114.349 30.9585 115.314 31.3179 115.966 32.0366C116.64 32.7554 116.977 33.6538 116.977 34.7319C116.977 35.7651 116.64 36.6299 115.966 37.3262C115.314 38.0225 114.349 38.3706 113.068 38.3706C111.788 38.3706 110.822 38.0225 110.171 37.3262C109.542 36.6299 109.228 35.7651 109.228 34.7319Z" fill="black"/>
</svg>
